<mxfile host="Electron" modified="2024-05-25T20:11:20.664Z" agent="Mozilla/5.0 (Windows NT 10.0; Win64; x64) AppleWebKit/537.36 (KHTML, like Gecko) draw.io/24.2.5 Chrome/120.0.6099.109 Electron/28.1.0 Safari/537.36" etag="p8Rc4aRKSsDN6iQfzISb" version="24.2.5" type="device">
  <diagram name="商家條件查詢" id="6uTObBLCZJcAvnYdVuUf">
    <mxGraphModel dx="4062" dy="138" grid="1" gridSize="10" guides="1" tooltips="1" connect="1" arrows="1" fold="1" page="1" pageScale="1" pageWidth="1169" pageHeight="827" math="0" shadow="0">
      <root>
        <mxCell id="0" />
        <mxCell id="1" parent="0" />
        <mxCell id="YuQygqYm4_OiDBKayIfQ-50" value="" style="edgeStyle=orthogonalEdgeStyle;rounded=0;orthogonalLoop=1;jettySize=auto;html=1;" parent="1" source="YuQygqYm4_OiDBKayIfQ-6" edge="1">
          <mxGeometry relative="1" as="geometry">
            <mxPoint x="-2890" y="1011" as="targetPoint" />
          </mxGeometry>
        </mxCell>
        <mxCell id="YuQygqYm4_OiDBKayIfQ-6" value="取得搜尋結果" style="rounded=1;whiteSpace=wrap;html=1;" parent="1" vertex="1">
          <mxGeometry x="-2950" y="960" width="120" height="31" as="geometry" />
        </mxCell>
        <mxCell id="YuQygqYm4_OiDBKayIfQ-7" style="edgeStyle=orthogonalEdgeStyle;rounded=0;orthogonalLoop=1;jettySize=auto;html=1;exitX=0.5;exitY=1;exitDx=0;exitDy=0;" parent="1" source="YuQygqYm4_OiDBKayIfQ-8" target="YuQygqYm4_OiDBKayIfQ-6" edge="1">
          <mxGeometry relative="1" as="geometry" />
        </mxCell>
        <mxCell id="YuQygqYm4_OiDBKayIfQ-8" value="" style="ellipse;whiteSpace=wrap;html=1;aspect=fixed;fillColor=#000000;" parent="1" vertex="1">
          <mxGeometry x="-2900" y="920.5" width="20" height="20" as="geometry" />
        </mxCell>
        <mxCell id="YuQygqYm4_OiDBKayIfQ-45" value="" style="ellipse;html=1;shape=endState;fillColor=#000000;strokeColor=#000000;" parent="1" vertex="1">
          <mxGeometry x="-2905" y="1241" width="30" height="30" as="geometry" />
        </mxCell>
        <mxCell id="JtnD3dbLDAArh6WuN1uB-22" value="" style="edgeStyle=orthogonalEdgeStyle;rounded=0;orthogonalLoop=1;jettySize=auto;html=1;" edge="1" source="JtnD3dbLDAArh6WuN1uB-23" target="JtnD3dbLDAArh6WuN1uB-27" parent="1">
          <mxGeometry relative="1" as="geometry" />
        </mxCell>
        <mxCell id="JtnD3dbLDAArh6WuN1uB-23" value="登入會員" style="rounded=1;whiteSpace=wrap;html=1;" vertex="1" parent="1">
          <mxGeometry x="-3390" y="960" width="120" height="31" as="geometry" />
        </mxCell>
        <mxCell id="JtnD3dbLDAArh6WuN1uB-24" style="edgeStyle=orthogonalEdgeStyle;rounded=0;orthogonalLoop=1;jettySize=auto;html=1;exitX=0.5;exitY=1;exitDx=0;exitDy=0;" edge="1" source="JtnD3dbLDAArh6WuN1uB-25" target="JtnD3dbLDAArh6WuN1uB-23" parent="1">
          <mxGeometry relative="1" as="geometry" />
        </mxCell>
        <mxCell id="JtnD3dbLDAArh6WuN1uB-25" value="" style="ellipse;whiteSpace=wrap;html=1;aspect=fixed;fillColor=#000000;" vertex="1" parent="1">
          <mxGeometry x="-3340" y="920.5" width="20" height="20" as="geometry" />
        </mxCell>
        <mxCell id="JtnD3dbLDAArh6WuN1uB-26" style="edgeStyle=orthogonalEdgeStyle;rounded=0;orthogonalLoop=1;jettySize=auto;html=1;entryX=0.5;entryY=0;entryDx=0;entryDy=0;" edge="1" source="JtnD3dbLDAArh6WuN1uB-27" target="JtnD3dbLDAArh6WuN1uB-38" parent="1">
          <mxGeometry relative="1" as="geometry" />
        </mxCell>
        <mxCell id="JtnD3dbLDAArh6WuN1uB-27" value="設定查詢條件" style="rounded=1;whiteSpace=wrap;html=1;" vertex="1" parent="1">
          <mxGeometry x="-3390" y="1020" width="120" height="31" as="geometry" />
        </mxCell>
        <mxCell id="JtnD3dbLDAArh6WuN1uB-28" value="" style="ellipse;html=1;shape=endState;fillColor=#000000;strokeColor=#000000;" vertex="1" parent="1">
          <mxGeometry x="-3345" y="1260" width="30" height="30" as="geometry" />
        </mxCell>
        <mxCell id="JtnD3dbLDAArh6WuN1uB-29" style="edgeStyle=orthogonalEdgeStyle;rounded=0;orthogonalLoop=1;jettySize=auto;html=1;" edge="1" source="JtnD3dbLDAArh6WuN1uB-30" target="JtnD3dbLDAArh6WuN1uB-32" parent="1">
          <mxGeometry relative="1" as="geometry" />
        </mxCell>
        <mxCell id="JtnD3dbLDAArh6WuN1uB-30" value="顯示搜尋結果" style="rounded=1;whiteSpace=wrap;html=1;" vertex="1" parent="1">
          <mxGeometry x="-3390" y="1140" width="120" height="31" as="geometry" />
        </mxCell>
        <mxCell id="JtnD3dbLDAArh6WuN1uB-31" style="edgeStyle=orthogonalEdgeStyle;rounded=0;orthogonalLoop=1;jettySize=auto;html=1;entryX=0.5;entryY=0;entryDx=0;entryDy=0;" edge="1" source="JtnD3dbLDAArh6WuN1uB-32" target="JtnD3dbLDAArh6WuN1uB-28" parent="1">
          <mxGeometry relative="1" as="geometry" />
        </mxCell>
        <mxCell id="JtnD3dbLDAArh6WuN1uB-32" value="查詢成功" style="rounded=1;whiteSpace=wrap;html=1;" vertex="1" parent="1">
          <mxGeometry x="-3390" y="1200" width="120" height="31" as="geometry" />
        </mxCell>
        <mxCell id="JtnD3dbLDAArh6WuN1uB-33" style="edgeStyle=orthogonalEdgeStyle;rounded=0;orthogonalLoop=1;jettySize=auto;html=1;" edge="1" source="JtnD3dbLDAArh6WuN1uB-38" parent="1">
          <mxGeometry relative="1" as="geometry">
            <mxPoint x="-3330" y="1140" as="targetPoint" />
          </mxGeometry>
        </mxCell>
        <mxCell id="JtnD3dbLDAArh6WuN1uB-34" value="有符合條件" style="edgeLabel;html=1;align=center;verticalAlign=middle;resizable=0;points=[];" vertex="1" connectable="0" parent="JtnD3dbLDAArh6WuN1uB-33">
          <mxGeometry x="-0.3925" y="1" relative="1" as="geometry">
            <mxPoint x="-1" y="4" as="offset" />
          </mxGeometry>
        </mxCell>
        <mxCell id="JtnD3dbLDAArh6WuN1uB-35" style="edgeStyle=orthogonalEdgeStyle;rounded=0;orthogonalLoop=1;jettySize=auto;html=1;entryX=0.5;entryY=0;entryDx=0;entryDy=0;" edge="1" source="JtnD3dbLDAArh6WuN1uB-38" target="JtnD3dbLDAArh6WuN1uB-40" parent="1">
          <mxGeometry relative="1" as="geometry">
            <mxPoint x="-3230" y="1082" as="targetPoint" />
          </mxGeometry>
        </mxCell>
        <mxCell id="JtnD3dbLDAArh6WuN1uB-36" value="無符合條件" style="edgeLabel;html=1;align=center;verticalAlign=middle;resizable=0;points=[];" vertex="1" connectable="0" parent="JtnD3dbLDAArh6WuN1uB-35">
          <mxGeometry x="-0.2047" y="-1" relative="1" as="geometry">
            <mxPoint x="-40" y="-1" as="offset" />
          </mxGeometry>
        </mxCell>
        <mxCell id="JtnD3dbLDAArh6WuN1uB-37" value="&lt;font style=&quot;font-size: 16px;&quot;&gt;(商家條件查詢)&lt;/font&gt;" style="edgeLabel;html=1;align=center;verticalAlign=middle;resizable=0;points=[];" vertex="1" connectable="0" parent="JtnD3dbLDAArh6WuN1uB-35">
          <mxGeometry x="-0.2047" y="-1" relative="1" as="geometry">
            <mxPoint x="64" y="-86" as="offset" />
          </mxGeometry>
        </mxCell>
        <mxCell id="JtnD3dbLDAArh6WuN1uB-57" value="&lt;font style=&quot;font-size: 16px;&quot;&gt;(商家資訊檢視)&lt;/font&gt;" style="edgeLabel;html=1;align=center;verticalAlign=middle;resizable=0;points=[];" vertex="1" connectable="0" parent="JtnD3dbLDAArh6WuN1uB-35">
          <mxGeometry x="-0.2047" y="-1" relative="1" as="geometry">
            <mxPoint x="484" y="-93" as="offset" />
          </mxGeometry>
        </mxCell>
        <mxCell id="JtnD3dbLDAArh6WuN1uB-38" value="" style="rhombus;whiteSpace=wrap;html=1;" vertex="1" parent="1">
          <mxGeometry x="-3345" y="1073" width="30" height="18" as="geometry" />
        </mxCell>
        <mxCell id="JtnD3dbLDAArh6WuN1uB-39" style="edgeStyle=orthogonalEdgeStyle;rounded=0;orthogonalLoop=1;jettySize=auto;html=1;entryX=0.5;entryY=0;entryDx=0;entryDy=0;" edge="1" source="JtnD3dbLDAArh6WuN1uB-40" target="JtnD3dbLDAArh6WuN1uB-42" parent="1">
          <mxGeometry relative="1" as="geometry" />
        </mxCell>
        <mxCell id="JtnD3dbLDAArh6WuN1uB-40" value="提示查無結果" style="rounded=1;whiteSpace=wrap;html=1;" vertex="1" parent="1">
          <mxGeometry x="-3230" y="1140" width="120" height="31" as="geometry" />
        </mxCell>
        <mxCell id="JtnD3dbLDAArh6WuN1uB-41" style="edgeStyle=orthogonalEdgeStyle;rounded=0;orthogonalLoop=1;jettySize=auto;html=1;entryX=1;entryY=0.5;entryDx=0;entryDy=0;" edge="1" source="JtnD3dbLDAArh6WuN1uB-42" target="JtnD3dbLDAArh6WuN1uB-28" parent="1">
          <mxGeometry relative="1" as="geometry">
            <Array as="points">
              <mxPoint x="-3170" y="1275" />
            </Array>
          </mxGeometry>
        </mxCell>
        <mxCell id="JtnD3dbLDAArh6WuN1uB-42" value="查詢成功" style="rounded=1;whiteSpace=wrap;html=1;" vertex="1" parent="1">
          <mxGeometry x="-3230" y="1200" width="120" height="31" as="geometry" />
        </mxCell>
        <mxCell id="JtnD3dbLDAArh6WuN1uB-43" value="" style="shape=link;html=1;rounded=0;strokeWidth=3;width=-3.1034482758620685;" edge="1" parent="1">
          <mxGeometry width="100" relative="1" as="geometry">
            <mxPoint x="-2940" y="1010.0000000000001" as="sourcePoint" />
            <mxPoint x="-2840" y="1010.0000000000001" as="targetPoint" />
          </mxGeometry>
        </mxCell>
        <mxCell id="JtnD3dbLDAArh6WuN1uB-47" style="edgeStyle=orthogonalEdgeStyle;rounded=0;orthogonalLoop=1;jettySize=auto;html=1;endArrow=none;endFill=0;startArrow=classic;startFill=1;" edge="1" parent="1" source="JtnD3dbLDAArh6WuN1uB-45">
          <mxGeometry relative="1" as="geometry">
            <mxPoint x="-2890" y="1010" as="targetPoint" />
            <Array as="points">
              <mxPoint x="-2960" y="1030" />
              <mxPoint x="-2890" y="1030" />
            </Array>
          </mxGeometry>
        </mxCell>
        <mxCell id="JtnD3dbLDAArh6WuN1uB-50" style="edgeStyle=orthogonalEdgeStyle;rounded=0;orthogonalLoop=1;jettySize=auto;html=1;entryX=0.5;entryY=0;entryDx=0;entryDy=0;" edge="1" parent="1" source="JtnD3dbLDAArh6WuN1uB-45" target="JtnD3dbLDAArh6WuN1uB-49">
          <mxGeometry relative="1" as="geometry" />
        </mxCell>
        <mxCell id="JtnD3dbLDAArh6WuN1uB-45" value="點擊地圖標記" style="rounded=1;whiteSpace=wrap;html=1;" vertex="1" parent="1">
          <mxGeometry x="-3020" y="1051" width="120" height="31" as="geometry" />
        </mxCell>
        <mxCell id="JtnD3dbLDAArh6WuN1uB-48" style="edgeStyle=orthogonalEdgeStyle;rounded=0;orthogonalLoop=1;jettySize=auto;html=1;endArrow=none;endFill=0;startArrow=classic;startFill=1;" edge="1" parent="1" source="JtnD3dbLDAArh6WuN1uB-46">
          <mxGeometry relative="1" as="geometry">
            <mxPoint x="-2890" y="1010" as="targetPoint" />
            <Array as="points">
              <mxPoint x="-2820" y="1030" />
              <mxPoint x="-2890" y="1030" />
            </Array>
          </mxGeometry>
        </mxCell>
        <mxCell id="JtnD3dbLDAArh6WuN1uB-56" style="edgeStyle=orthogonalEdgeStyle;rounded=0;orthogonalLoop=1;jettySize=auto;html=1;entryX=0.5;entryY=0;entryDx=0;entryDy=0;" edge="1" parent="1" source="JtnD3dbLDAArh6WuN1uB-46" target="JtnD3dbLDAArh6WuN1uB-53">
          <mxGeometry relative="1" as="geometry" />
        </mxCell>
        <mxCell id="JtnD3dbLDAArh6WuN1uB-46" value="點擊商家列表" style="rounded=1;whiteSpace=wrap;html=1;" vertex="1" parent="1">
          <mxGeometry x="-2880" y="1051" width="120" height="31" as="geometry" />
        </mxCell>
        <mxCell id="JtnD3dbLDAArh6WuN1uB-52" style="edgeStyle=orthogonalEdgeStyle;rounded=0;orthogonalLoop=1;jettySize=auto;html=1;entryX=0.5;entryY=0;entryDx=0;entryDy=0;" edge="1" parent="1" source="JtnD3dbLDAArh6WuN1uB-49" target="JtnD3dbLDAArh6WuN1uB-51">
          <mxGeometry relative="1" as="geometry" />
        </mxCell>
        <mxCell id="JtnD3dbLDAArh6WuN1uB-49" value="顯示標記資訊" style="rounded=1;whiteSpace=wrap;html=1;" vertex="1" parent="1">
          <mxGeometry x="-3020" y="1109" width="120" height="31" as="geometry" />
        </mxCell>
        <mxCell id="JtnD3dbLDAArh6WuN1uB-54" style="edgeStyle=orthogonalEdgeStyle;rounded=0;orthogonalLoop=1;jettySize=auto;html=1;entryX=0.5;entryY=0;entryDx=0;entryDy=0;" edge="1" parent="1" source="JtnD3dbLDAArh6WuN1uB-51" target="YuQygqYm4_OiDBKayIfQ-45">
          <mxGeometry relative="1" as="geometry" />
        </mxCell>
        <mxCell id="JtnD3dbLDAArh6WuN1uB-51" value="檢視完畢" style="rounded=1;whiteSpace=wrap;html=1;" vertex="1" parent="1">
          <mxGeometry x="-2950" y="1180" width="120" height="31" as="geometry" />
        </mxCell>
        <mxCell id="JtnD3dbLDAArh6WuN1uB-55" style="edgeStyle=orthogonalEdgeStyle;rounded=0;orthogonalLoop=1;jettySize=auto;html=1;entryX=0.5;entryY=0;entryDx=0;entryDy=0;" edge="1" parent="1" source="JtnD3dbLDAArh6WuN1uB-53" target="JtnD3dbLDAArh6WuN1uB-51">
          <mxGeometry relative="1" as="geometry" />
        </mxCell>
        <mxCell id="JtnD3dbLDAArh6WuN1uB-53" value="顯示商家資料頁面" style="rounded=1;whiteSpace=wrap;html=1;" vertex="1" parent="1">
          <mxGeometry x="-2880" y="1109" width="120" height="31" as="geometry" />
        </mxCell>
      </root>
    </mxGraphModel>
  </diagram>
</mxfile>
